<?xml version="1.0" standalone="no"?>
<!DOCTYPE svg PUBLIC "-//W3C//DTD SVG 20010904//EN"
 "http://www.w3.org/TR/2001/REC-SVG-20010904/DTD/svg10.dtd">
<svg version="1.0" xmlns="http://www.w3.org/2000/svg"
 width="557.000000pt" height="557.000000pt" viewBox="0 0 557.000000 557.000000"
 preserveAspectRatio="xMidYMid meet">
<metadata>
Created by potrace 1.11, written by Peter Selinger 2001-2013
</metadata>
<g transform="translate(0.000000,557.000000) scale(0.100000,-0.100000)"
fill="#000000" stroke="none">
<path d="M2565 4954 c-605 -63 -1118 -331 -1497 -783 -314 -375 -512 -894
-519 -1358 -1 -57 -5 -100 -9 -98 -5 3 -12 1 -15 -5 -4 -6 -1 -9 5 -8 8 2 14
-15 15 -47 3 -37 1 -44 -5 -27 -5 12 -11 22 -14 22 -7 0 6 -40 15 -46 5 -3 9
-13 9 -22 0 -13 -2 -14 -9 -3 -5 8 -11 9 -15 3 -4 -6 2 -15 11 -21 10 -5 15
-12 12 -16 -4 -3 -14 1 -22 10 -14 14 -16 13 -22 -6 -6 -17 -9 -19 -16 -8 -6
10 -8 5 -8 -16 0 -16 3 -24 6 -17 2 6 9 10 14 6 5 -3 9 4 9 15 0 18 3 19 25 9
13 -6 22 -15 19 -20 -3 -4 -9 -6 -14 -3 -5 3 -23 -3 -42 -14 -28 -15 -37 -16
-56 -6 -16 8 -20 15 -12 20 6 4 18 -1 25 -11 20 -26 19 -9 -1 22 -15 22 -15
24 0 18 9 -4 16 -1 16 6 0 7 7 10 15 6 20 -7 19 3 -2 26 -9 10 -13 21 -9 25 4
4 11 1 16 -7 8 -12 10 -10 10 7 0 12 -5 25 -12 29 -7 5 -8 2 -3 -7 5 -8 0 -7
-10 3 -18 16 -18 19 -2 36 9 10 17 26 17 34 0 22 -24 40 -44 32 -18 -7 -22
-24 -6 -24 6 0 10 4 10 10 0 5 7 7 15 4 8 -4 15 -12 15 -20 0 -10 -10 -13 -39
-9 -22 3 -42 2 -44 -2 -3 -5 8 -8 24 -9 39 -1 43 -8 28 -36 l-13 -23 -7 25 -8
25 2 -25 c1 -17 8 -25 19 -24 10 1 15 -2 12 -7 -12 -20 -54 5 -47 27 2 7 -12
14 -34 16 -47 6 -58 1 -41 -20 9 -12 6 -11 -10 2 -19 17 -22 17 -22 3 0 -10 4
-17 8 -17 4 0 8 -9 9 -19 2 -18 1 -19 -16 -3 -10 9 -16 21 -13 26 3 5 0 6 -7
2 -6 -4 -9 -11 -6 -16 3 -4 -1 -12 -8 -18 -9 -8 -12 -1 -12 29 -1 24 3 35 8
30 13 -13 39 13 31 32 -6 16 -44 12 -44 -4 0 -5 -7 -9 -17 -9 -13 0 -11 4 7
20 13 11 18 20 12 20 -6 0 -13 -4 -17 -9 -3 -5 -17 -8 -30 -5 -14 2 -25 0 -25
-6 0 -6 4 -8 10 -5 5 3 10 -1 10 -9 0 -10 -9 -16 -21 -16 -16 0 -20 -4 -14
-17 5 -14 3 -15 -5 -7 -9 9 -9 17 -1 32 9 17 8 20 -7 17 -9 -2 -21 -4 -25 -4
-5 -1 -5 -5 -2 -11 3 -5 3 -11 -2 -11 -65 -9 -68 -9 -68 15 0 12 6 23 13 23 7
0 11 -5 9 -12 -3 -6 3 -11 12 -11 9 0 17 8 17 17 0 10 -5 15 -10 12 -5 -3 -15
2 -23 12 -7 11 -13 15 -14 9 0 -5 -4 0 -9 11 -8 20 -9 20 -9 -1 -1 -11 -8 -21
-16 -21 -17 0 -20 23 -5 30 6 3 5 4 -2 3 -16 -3 -24 -106 -9 -106 6 0 11 -5
11 -11 0 -5 -4 -7 -10 -4 -7 4 -10 -437 -10 -1314 l0 -1321 2785 0 2785 0 0
1375 c0 1093 -3 1375 -12 1375 -9 0 -9 3 -3 8 18 12 12 47 -7 46 -10 -1 -15 2
-12 7 3 5 12 9 20 9 8 0 14 4 14 9 0 5 -7 8 -16 7 -9 0 -19 5 -21 12 -3 7 1
10 10 6 15 -5 33 24 21 35 -4 3 -9 0 -11 -7 -3 -6 -9 -10 -14 -6 -15 9 -10 24
7 24 13 0 15 6 9 28 -8 33 -34 76 -42 68 -3 -3 0 -12 7 -21 8 -9 8 -15 2 -15
-6 0 -14 9 -17 20 -3 11 -9 20 -13 20 -14 -1 -42 -28 -43 -41 -1 -8 -4 -3 -8
11 -8 24 -8 24 -24 -13 -9 -22 -26 -41 -37 -44 -19 -5 -19 -6 -3 -18 10 -8 14
-17 9 -22 -5 -4 -11 -2 -13 5 -3 6 -8 12 -13 12 -10 0 -20 -52 -12 -65 12 -19
10 -34 -4 -28 -8 3 -11 9 -8 14 3 5 0 9 -6 9 -7 0 -9 -7 -6 -16 3 -9 6 -20 6
-25 0 -5 7 -9 15 -9 9 0 15 -9 15 -22 0 -12 -3 -18 -6 -15 -4 3 -16 2 -26 -4
-15 -8 -23 -8 -32 2 -8 9 -7 11 6 6 15 -5 16 -4 6 13 -9 14 -14 16 -20 7 -5
-7 -8 -1 -8 16 0 46 -24 26 -25 -21 -1 -22 2 -39 6 -36 10 6 16 -33 15 -111
-1 -38 2 -72 6 -75 4 -3 5 -16 1 -28 -5 -20 -8 -19 -36 21 -17 23 -38 48 -46
55 -9 8 -11 11 -5 8 7 -3 14 4 16 17 7 34 -20 30 -27 -4 -4 -15 -1 -36 6 -47
7 -11 9 -27 6 -36 -7 -17 -37 -22 -37 -6 0 6 -7 10 -15 10 -8 0 -15 -2 -15 -5
0 -11 37 -64 42 -60 2 3 5 -1 6 -7 1 -7 3 -26 6 -43 3 -16 3 -21 0 -10 -12 39
-24 46 -46 25 -15 -14 -19 -27 -16 -51 3 -21 -1 -39 -11 -51 -18 -21 -47 -24
-54 -5 -3 6 -6 3 -6 -8 -1 -12 -6 -26 -13 -33 -17 -17 -18 -35 -2 -50 8 -7 14
-8 14 -3 0 5 14 16 30 25 17 8 28 10 25 5 -4 -5 -2 -9 2 -9 5 0 9 -9 10 -21 2
-18 -2 -20 -25 -15 -15 3 -22 3 -16 0 13 -5 7 -44 -7 -44 -5 0 -6 7 -3 15 4 8
1 15 -5 15 -6 0 -11 -9 -11 -20 0 -23 -31 -41 -38 -22 -7 23 -21 12 -25 -20
l-4 -33 -1 35 c-1 24 -9 39 -23 48 -12 7 -23 11 -26 9 -2 -3 -13 3 -22 12 -17
17 -17 22 0 107 32 153 42 294 36 502 -5 203 -17 294 -63 482 -150 610 -594
1161 -1158 1439 -311 153 -589 220 -931 226 -104 2 -208 1 -230 -1z m-120
-985 c213 -52 335 -177 352 -359 6 -68 -17 -163 -60 -244 -37 -70 -130 -167
-188 -196 l-42 -22 -23 29 c-30 36 -30 54 2 84 87 82 126 240 90 361 -20 63
-31 83 -78 134 -53 58 -119 90 -220 108 -73 12 -97 13 -178 1 -107 -17 -137
-25 -217 -65 -180 -89 -293 -252 -293 -423 0 -99 35 -182 112 -263 96 -103
139 -130 533 -339 273 -144 397 -256 472 -423 22 -51 25 -70 25 -172 0 -91 -4
-126 -21 -169 -57 -149 -181 -281 -334 -354 -147 -70 -221 -87 -384 -87 -141
0 -234 21 -343 78 -80 41 -133 91 -168 157 -24 45 -27 61 -27 150 0 85 4 107
25 150 49 102 176 200 324 250 72 25 90 19 94 -32 3 -42 2 -42 -48 -68 -28
-14 -77 -52 -109 -84 -120 -120 -133 -265 -35 -380 71 -82 169 -121 310 -121
200 0 363 68 444 185 48 69 65 129 65 230 0 77 -4 98 -26 146 -51 106 -158
200 -339 297 -41 22 -145 75 -230 119 -288 148 -386 229 -462 381 l-41 84 -1
132 c0 118 3 139 28 209 52 149 148 276 281 372 62 44 174 100 233 116 17 5
49 14 70 20 95 27 310 32 407 8z m1362 12 c134 -20 257 -108 308 -222 25 -57
27 -69 23 -163 -3 -93 -7 -107 -41 -176 -61 -120 -182 -260 -227 -260 -15 0
-60 49 -60 66 0 4 18 27 41 51 23 25 55 75 72 111 25 57 31 83 35 168 5 122
-12 192 -65 254 -48 55 -80 70 -155 70 -76 0 -124 -27 -162 -93 -51 -87 -58
-127 -52 -286 3 -80 10 -182 15 -226 55 -436 74 -921 41 -1030 -5 -16 -17 -55
-26 -85 -22 -74 -79 -185 -120 -236 -19 -22 -34 -44 -34 -47 0 -4 27 -20 60
-37 32 -16 99 -53 147 -82 146 -87 164 -97 268 -148 103 -50 220 -92 290 -105
83 -14 247 -7 315 15 l65 21 18 -22 c26 -32 22 -42 -35 -76 -118 -72 -310
-133 -414 -133 -233 0 -464 93 -735 296 l-154 116 -60 -30 c-127 -64 -284 -81
-369 -41 -88 41 -123 142 -74 212 33 46 56 64 118 88 68 27 206 29 318 5 41
-9 78 -13 83 -10 20 12 63 122 85 219 18 82 21 489 4 628 -5 45 -15 132 -21
192 -6 61 -15 144 -20 185 -18 135 -22 440 -8 485 56 172 193 296 359 325 63
11 96 11 167 1z m1618 -1081 c3 -6 -1 -7 -9 -4 -18 7 -21 14 -7 14 6 0 13 -4
16 -10z m64 -32 c-8 -15 -13 -17 -25 -7 -8 6 -14 14 -14 16 0 3 8 -1 17 -8 14
-12 16 -12 11 2 -4 9 -1 16 7 16 11 0 11 -5 4 -19z m-69 -9 c0 -6 -4 -7 -10
-4 -5 3 -10 11 -10 16 0 6 5 7 10 4 6 -3 10 -11 10 -16z m40 -29 c-8 -5 -19
-10 -25 -10 -5 0 -3 5 5 10 8 5 20 10 25 10 6 0 3 -5 -5 -10z m70 -86 c-10
-16 -11 -16 -6 -2 3 10 1 20 -4 23 -6 4 -10 11 -10 18 0 7 7 5 16 -5 13 -13
14 -20 4 -34z m-5487 -55 c5 -3 2 -9 -5 -12 -9 -3 -14 3 -15 15 -1 11 1 16 5
12 4 -5 11 -12 15 -15z m5464 -21 c-3 -8 -6 -5 -6 6 -1 11 2 17 5 13 3 -3 4
-12 1 -19z m-197 -7 c0 -5 -7 -12 -16 -15 -14 -5 -15 -4 -4 9 14 17 20 19 20
6z m175 -11 c-3 -5 -11 -10 -16 -10 -6 0 -7 5 -4 10 3 6 11 10 16 10 6 0 7 -4
4 -10z m-5252 -6 c17 -6 11 -45 -9 -56 -7 -5 -10 -18 -8 -30 4 -21 3 -21 -7 2
-11 24 -11 24 -19 5 -5 -11 -9 -14 -9 -7 -1 7 -5 10 -11 7 -5 -3 -7 0 -4 9 3
8 14 13 25 11 13 -3 19 0 16 8 -2 7 -9 12 -14 12 -6 0 -15 4 -20 9 -5 5 -3 6
5 2 7 -4 12 -2 12 5 0 7 6 4 14 -7 14 -18 15 -18 22 0 4 11 2 21 -7 27 -16 10
-8 12 14 3z m162 -4 c-3 -5 1 -22 8 -37 13 -24 13 -30 1 -41 -13 -12 -14 -9
-8 15 7 26 6 27 -12 13 -18 -14 -18 -14 -5 3 10 13 11 21 4 28 -8 8 -14 5 -22
-9 -9 -16 -7 -24 6 -38 12 -12 13 -16 4 -13 -29 10 -36 35 -18 63 16 23 56 39
42 16z m5090 -30 c3 -6 -1 -7 -9 -4 -18 7 -21 14 -7 14 6 0 13 -4 16 -10z
m-165 -15 c0 -2 -9 -3 -19 -2 -11 0 -18 5 -15 9 4 6 34 0 34 -7z m-5057 -38
c4 3 7 1 7 -5 0 -6 -4 -14 -10 -17 -5 -3 -10 0 -10 7 0 10 -2 10 -9 -1 -7 -10
-9 -6 -8 13 2 22 4 24 13 11 6 -8 14 -12 17 -8z m143 -31 c-20 -17 -24 -25
-15 -29 9 -3 10 -6 2 -6 -33 -2 -20 37 17 52 26 10 26 7 -4 -17z m5145 11 c-4
-4 -18 -3 -32 2 -23 9 -22 9 8 8 18 -1 28 -6 24 -10z m-221 -11 c0 -3 -4 -8
-10 -11 -5 -3 -10 -1 -10 4 0 6 5 11 10 11 6 0 10 -2 10 -4z m150 -20 c0 -2
-7 -7 -16 -10 -8 -3 -12 -2 -9 4 6 10 25 14 25 6z m-4924 -31 c-6 -17 -26 -12
-26 6 0 6 5 7 10 4 6 -3 10 -1 10 6 0 7 3 10 6 6 4 -3 4 -13 0 -22z m4754 21
c0 -3 -4 -8 -10 -11 -5 -3 -10 -1 -10 4 0 6 5 11 10 11 6 0 10 -2 10 -4z
m-4860 -27 c0 -11 -3 -11 -24 -3 -23 9 -20 23 4 17 11 -3 20 -9 20 -14z m4920
-14 c0 -12 -19 -12 -23 0 -4 9 -1 12 9 8 7 -3 14 -7 14 -8z m-4920 -9 c0 -2
-7 -7 -16 -10 -8 -3 -12 -2 -9 4 6 10 25 14 25 6z m13 -24 c-3 -12 -9 -19 -14
-16 -5 3 -3 14 3 24 15 24 19 21 11 -8z m4750 -3 c-5 -16 -8 -18 -14 -7 -13
20 -11 38 5 32 8 -3 12 -13 9 -25z m-4690 -25 c-4 -10 -10 -11 -24 -3 -25 13
-24 17 5 17 16 0 23 -5 19 -14z m4758 -21 c13 -15 12 -15 -8 -4 -24 12 -29 21
-14 21 5 0 15 -7 22 -17z m-4748 -8 c-3 -9 -8 -14 -10 -11 -3 3 -2 9 2 15 9
16 15 13 8 -4z m4632 5 c3 -5 2 -10 -4 -10 -5 0 -13 5 -16 10 -3 6 -2 10 4 10
5 0 13 -4 16 -10z m-5 -30 c0 -5 -2 -10 -4 -10 -3 0 -8 5 -11 10 -3 6 -1 10 4
10 6 0 11 -4 11 -10z m-4614 -30 c0 -12 -4 -16 -9 -11 -5 5 -6 14 -3 20 10 15
12 14 12 -9z m4587 -1 c-6 -6 -9 -19 -6 -28 5 -13 3 -14 -7 -4 -11 10 -11 15
0 28 7 8 15 15 18 15 3 0 1 -5 -5 -11z m-227 -125 c-3 -8 -2 -12 4 -9 6 3 10
-1 10 -11 0 -13 3 -14 14 -4 12 9 15 8 13 -7 -1 -19 -37 -28 -37 -9 0 5 -9 1
-20 -9 -11 -10 -20 -14 -20 -8 0 22 23 73 32 73 6 0 7 -7 4 -16z m-26 -83 c0
-6 -4 -12 -8 -15 -5 -3 -9 1 -9 9 0 8 4 15 9 15 4 0 8 -4 8 -9z m33 -23 c-4
-7 -8 -19 -9 -26 -3 -18 -14 -29 -14 -14 0 7 -6 12 -14 12 -8 0 -18 5 -22 12
-5 8 0 9 15 5 14 -3 24 0 28 9 3 8 9 14 15 14 5 0 6 -6 1 -12z"/>
<path d="M2879 1861 c-55 -17 -69 -30 -69 -66 0 -40 26 -63 81 -71 50 -8 164
25 207 59 17 14 -38 50 -108 71 -58 17 -72 18 -111 7z"/>
<path d="M5535 3049 c4 -6 0 -9 -10 -7 -10 2 -20 -3 -23 -11 -3 -8 0 -11 6 -7
6 3 13 -3 17 -14 7 -22 25 -27 26 -7 0 6 2 20 4 29 2 9 -4 19 -12 22 -8 4 -11
1 -8 -5z"/>
<path d="M2 2880 c0 -14 2 -19 5 -12 2 6 2 18 0 25 -3 6 -5 1 -5 -13z"/>
<path d="M22 2878 c6 -18 28 -21 28 -4 0 9 -7 16 -16 16 -9 0 -14 -5 -12 -12z"/>
<path d="M10 2846 c-13 -13 -13 -26 0 -26 6 0 10 7 10 15 0 12 4 13 19 5 26
-13 31 -13 31 4 0 16 -45 17 -60 2z"/>
<path d="M23 2813 c-16 -3 -23 -11 -22 -26 1 -17 2 -18 6 -4 2 9 9 17 15 17 5
0 8 -7 5 -14 -4 -9 -1 -13 6 -10 7 2 13 13 14 24 1 11 1 19 0 19 -1 -1 -12 -4
-24 -6z"/>
<path d="M60 2786 c0 -7 11 -16 25 -18 14 -3 25 -4 25 -3 0 2 -11 10 -25 19
-20 13 -25 14 -25 2z"/>
<path d="M414 2772 c4 -7 2 -21 -5 -30 -12 -15 -11 -15 6 0 16 15 17 20 6 30
-11 11 -13 10 -7 0z"/>
<path d="M358 2683 c7 -3 16 -2 19 1 4 3 -2 6 -13 5 -11 0 -14 -3 -6 -6z"/>
<path d="M511 2618 c0 -9 -4 -25 -7 -35 -5 -14 -4 -15 5 -7 7 7 11 22 8 35 -2
13 -5 16 -6 7z"/>
<path d="M4995 2269 c-4 -6 -5 -13 -2 -16 7 -7 27 6 27 18 0 12 -17 12 -25 -2z"/>
</g>
</svg>
